Coordinates
version=1
nRows=54
nColumns=12
inDegrees=yes

Units are S.I. units (second, meters, Newtons, ...)
Angles are in degrees

endheader
time	SC_y	SC_z	SC_x	AC_y	AC_z	AC_x	GH_y	GH_z	GH_yy	EL_x	PS_y
       0.0              -19.83          8.845          61.85          57.85          1.917        -0.4258          3.966          66.16          170.0          21.04          121.2
   0.01452              -19.83          8.844          61.85          57.85          1.914        -0.4243          3.942          66.16          169.9          21.04          121.2
   0.02904              -19.84          8.843          61.85          57.85          1.911        -0.4227          3.917          66.15          169.9          21.05          121.2
   0.04356              -19.84          8.841          61.85          57.85          1.907         -0.421          3.891          66.15          169.8          21.06          121.1
   0.05808              -19.85           8.84          61.85          57.85          1.904        -0.4192          3.862          66.15          169.8          21.07          121.1
    0.0726              -19.85          8.839          61.85          57.85            1.9        -0.4172          3.832          66.15          169.7          21.08          121.1
   0.08712              -19.86          8.837          61.85          57.85          1.895        -0.4152          3.799          66.14          169.6          21.09          121.1
    0.1016              -19.86          8.836          61.85          57.85          1.891         -0.413          3.765          66.14          169.6           21.1          121.1
    0.1162              -19.87          8.834          61.85          57.86          1.886        -0.4106          3.728          66.14          169.5          21.11          121.0
    0.1307              -19.87          8.833          61.85          57.86           1.88        -0.4081          3.688          66.13          169.4          21.13          121.0
    0.1452              -19.88          8.831          61.85          57.86          1.875        -0.4054          3.645          66.13          169.3          21.14          121.0
    0.1597              -19.89          8.829          61.85          57.86          1.869        -0.4025          3.599          66.12          169.2          21.16          121.0
    0.1742              -19.89          8.826          61.85          57.86          1.862        -0.3993           3.55          66.12          169.1          21.17          120.9
    0.1888               -19.9          8.824          61.85          57.87          1.855        -0.3959          3.496          66.11          169.0          21.19          120.9
    0.2033              -19.91          8.821          61.85          57.87          1.847        -0.3922          3.439          66.11          168.9          21.21          120.9
    0.2178              -19.92          8.819          61.85          57.87          1.839        -0.3883          3.376           66.1          168.8          21.23          120.8
    0.2323              -19.93          8.816          61.85          57.87           1.83        -0.3839          3.308          66.09          168.6          21.25          120.8
    0.2468              -19.94          8.812          61.85          57.88           1.82        -0.3792          3.233          66.09          168.5          21.28          120.7
    0.2614              -19.96          8.809          61.84          57.88          1.809         -0.374          3.152          66.08          168.3          21.31          120.7
    0.2759              -19.97          8.805          61.84          57.88          1.797        -0.3684          3.063          66.07          168.2          21.34          120.6
    0.2904              -19.98          8.801          61.84          57.89          1.785        -0.3622          2.966          66.06          168.0          21.37          120.5
    0.3049               -20.0          8.796          61.84          57.89           1.77        -0.3554          2.858          66.05          167.7           21.4          120.5
    0.3194              -20.02          8.791          61.84           57.9          1.755        -0.3478           2.74          66.04          167.5          21.44          120.4
     0.334              -20.04          8.785          61.84           57.9          1.737        -0.3395          2.608          66.03          167.2          21.49          120.3
    0.3485              -20.06          8.778          61.84          57.91          1.718        -0.3302          2.462          66.01          166.9          21.53          120.2
     0.363              -20.09          8.771          61.84          57.92          1.696        -0.3198          2.299           66.0          166.6          21.59          120.1
    0.3775              -20.11          8.763          61.84          57.93          1.672        -0.3082          2.117          65.98          166.3          21.65          120.0
    0.3921              -20.15          8.754          61.84          57.93          1.645        -0.2951          1.911          65.96          165.8          21.72          119.9
    0.4066              -20.18          8.744          61.83          57.94          1.614        -0.2804          1.679          65.93          165.4          21.79          119.7
    0.4211              -20.22          8.732          61.83          57.96          1.579        -0.2636          1.416          65.91          164.9          21.88          119.5
    0.4356              -20.27          8.719          61.83          57.97          1.539        -0.2445          1.115          65.88          164.2          21.98          119.4
    0.4501              -20.32          8.703          61.83          57.98          1.493        -0.2226         0.7696          65.85          163.6           22.1          119.1
    0.4647              -20.38          8.686          61.82           58.0           1.44        -0.1972         0.3711          65.81          162.8          22.23          118.9
    0.4792              -20.45          8.665          61.82          58.02          1.379        -0.1678         -0.092          65.76          161.8          22.38          118.6
    0.4937              -20.54          8.641          61.82          58.04          1.307        -0.1333        -0.6338          65.71          160.7          22.56          118.2
    0.5082              -20.63          8.613          61.81          58.07          1.222       -0.09274         -1.273          65.65          159.5          22.77          117.8
    0.5227              -20.75          8.579          61.81           58.1          1.121       -0.04448         -2.032          65.57          157.9          23.03          117.3
    0.5373              -20.89          8.539           61.8          58.14            1.0        0.01336         -2.942          65.48          156.1          23.33          116.7
    0.5518              -21.06           8.49          61.79          58.19          0.854        0.08334         -4.042          65.37          153.9          23.69          116.0
    0.5663              -21.26          8.431          61.78          58.25         0.6754         0.1688         -5.387          65.24          151.2          24.14          115.2
    0.5808              -21.52          8.357          61.77          58.32         0.4551         0.2743         -7.047          65.08          147.9          24.69          114.1
    0.5953              -21.84          8.266          61.76          58.41         0.1803         0.4059         -9.116          64.88          143.7          25.38          112.8
    0.6099              -22.24           8.15          61.74          58.52        -0.1659         0.5717         -11.72          64.62          138.5          26.24          111.1
    0.6244              -22.74          8.004          61.71          58.66         -0.606         0.7823         -15.04          64.29          131.9          27.34          109.0
    0.6389              -23.39          7.816          61.68          58.85         -1.169          1.052         -19.28          63.88          123.4          28.75          106.2
    0.6534              -24.23          7.575          61.64          59.08         -1.892          1.398         -24.72          63.34          112.5          30.56          102.7
    0.6679              -25.29          7.267          61.59          59.38         -2.815           1.84         -31.68          62.66          98.54          32.87          98.25
    0.6825              -26.64           6.88          61.53          59.75         -3.976          2.396         -40.42           61.8          81.02          35.77          92.62
     0.697              -28.27          6.408          61.45          60.21         -5.391          3.073         -51.07          60.76          59.67          39.31          85.77
    0.7115              -30.16          5.862          61.36          60.74         -7.031          3.859         -63.43          59.55          34.92          43.41          77.82
     0.726              -32.21           5.27          61.26          61.32         -8.807          4.709          -76.8          58.24          8.126          47.85          69.21
    0.7405              -34.26          4.678          61.16          61.89         -10.58          5.559         -90.17          56.92         -18.67          52.29          60.61
    0.7551              -36.16          4.131          61.07          62.42         -12.22          6.344         -102.5          55.71         -43.42          56.39          52.66
    0.7696              -37.79           3.66           61.0          62.88         -13.64          7.021         -113.2          54.67         -64.77          59.92           45.8
